<svg width="32" height="32" viewBox="0 0 32 32" fill="none" xmlns="http://www.w3.org/2000/svg">
  <circle cx="16" cy="16" r="16" fill="url(#gradient)" />
  <path d="M10 14c0-3.314 2.686-6 6-6s6 2.686 6 6c0 1.2-.35 2.317-.955 3.259L22 18.25c0 1.657-1.343 3-3 3h-6c-1.657 0-3-1.343-3-3l.955-.991C10.35 16.317 10 15.2 10 14z" fill="white" opacity="0.9"/>
  <circle cx="13" cy="13" r="1" fill="white" opacity="0.8"/>
  <circle cx="19" cy="13" r="1" fill="white" opacity="0.8"/>
  <circle cx="16" cy="16" r="1" fill="white" opacity="0.8"/>
  <line x1="13" y1="13" x2="16" y2="16" stroke="white" stroke-width="0.5" opacity="0.6"/>
  <line x1="19" y1="13" x2="16" y2="16" stroke="white" stroke-width="0.5" opacity="0.6"/>
  <defs>
    <linearGradient id="gradient" x1="0%" y1="0%" x2="100%" y2="100%">
      <stop offset="0%" style="stop-color:#6366f1;stop-opacity:1" />
      <stop offset="100%" style="stop-color:#a855f7;stop-opacity:1" />
    </linearGradient>
  </defs>
</svg>